REM GENRE "Heavy Metal"
REM DISCID 6B09DF08
REM COMMENT "ExactAudioCopy v0.99pb3"
PERFORMER "Black Sabbath"
TITLE "Paranoid"
FILE "Black Sabbath - Paranoid\01 - War Pigs.wav" WAVE
  TRACK 01 AUDIO
    TITLE "War Pigs"
    PERFORMER "Black Sabbath"
    INDEX 01 00:00:00
  TRACK 02 AUDIO
    TITLE "Paranoid"
    PERFORMER "Black Sabbath"
    INDEX 00 07:54:42
FILE "Black Sabbath - Paranoid\02 - Paranoid.wav" WAVE
    INDEX 01 00:00:00
  TRACK 03 AUDIO
    TITLE "Planet Caravan"
    PERFORMER "Black Sabbath"
    INDEX 00 02:47:70
FILE "Black Sabbath - Paranoid\03 - Planet Caravan.wav" WAVE
    INDEX 01 00:00:00
  TRACK 04 AUDIO
    TITLE "Iron Man"
    PERFORMER "Black Sabbath"
    INDEX 00 04:30:42
FILE "Black Sabbath - Paranoid\04 - Iron Man.wav" WAVE
    INDEX 01 00:00:00
  TRACK 05 AUDIO
    TITLE "Electric Funeral"
    PERFORMER "Black Sabbath"
    INDEX 00 05:54:18
FILE "Black Sabbath - Paranoid\05 - Electric Funeral.wav" WAVE
    INDEX 01 00:00:00
  TRACK 06 AUDIO
    TITLE "Hand Of Doom"
    PERFORMER "Black Sabbath"
    INDEX 00 04:49:55
FILE "Black Sabbath - Paranoid\06 - Hand Of Doom.wav" WAVE
    INDEX 01 00:00:00
FILE "Black Sabbath - Paranoid\07 - Rat Salad.wav" WAVE
  TRACK 07 AUDIO
    TITLE "Rat Salad"
    PERFORMER "Black Sabbath"
    INDEX 01 00:00:00
  TRACK 08 AUDIO
    TITLE "Fairies Wear Boots"
    PERFORMER "Black Sabbath"
    INDEX 00 02:29:10
FILE "Black Sabbath - Paranoid\08 - Fairies Wear Boots.wav" WAVE
    INDEX 01 00:00:00
